<?xml version="1.0" standalone="no"?>
<!DOCTYPE svg PUBLIC "-//W3C//DTD SVG 20010904//EN"
 "http://www.w3.org/TR/2001/REC-SVG-20010904/DTD/svg10.dtd">
<svg version="1.0" xmlns="http://www.w3.org/2000/svg"
 width="600.000000pt" height="600.000000pt" viewBox="0 0 600.000000 600.000000"
 preserveAspectRatio="xMidYMid meet">
<metadata>
Created by potrace 1.10, written by Peter Selinger 2001-2011
</metadata>
<g transform="translate(0.000000,600.000000) scale(0.100000,-0.100000)"
fill="#000000" stroke="none">
<path d="M2881 4445 c1 -126 -1 -189 -9 -198 -10 -11 -65 -13 -294 -12 -159 0
-288 -3 -295 -8 -10 -7 -13 -122 -13 -516 l0 -506 200 -200 c134 -134 203
-196 210 -189 6 6 11 190 12 509 l3 500 295 0 295 0 3 -306 2 -307 201 -201
c110 -111 204 -201 210 -201 5 0 9 194 9 508 l0 507 -403 403 c-221 221 -408
402 -415 402 -11 0 -13 -40 -11 -185z"/>
<path d="M4350 2630 c-84 -11 -162 -72 -200 -155 -26 -58 -28 -199 -3 -253 27
-60 70 -109 120 -136 39 -22 58 -26 133 -26 75 0 94 4 133 26 50 27 93 76 121
137 25 54 25 191 0 244 -59 127 -160 181 -304 163z m99 -139 c57 -30 71 -58
71 -147 0 -88 -20 -127 -78 -151 -46 -19 -85 -9 -127 34 -34 35 -35 38 -35
115 0 89 14 118 73 150 41 22 50 22 96 -1z"/>
<path d="M474 2606 c-50 -23 -99 -75 -137 -143 -26 -48 -24 -189 5 -245 56
-112 134 -158 269 -158 110 0 129 13 129 89 0 28 -4 52 -9 55 -5 3 -32 -1 -60
-10 -53 -15 -71 -14 -128 12 -53 24 -73 62 -73 140 0 85 24 121 98 147 49 18
54 18 101 2 28 -9 55 -14 61 -10 5 3 10 28 10 56 0 76 -19 89 -127 89 -71 0
-98 -5 -139 -24z"/>
<path d="M4765 2617 c-3 -7 -4 -134 -3 -282 l3 -270 62 0 c34 0 65 4 70 8 4 5
9 59 10 120 1 143 1 137 16 137 6 0 24 -26 40 -58 15 -31 41 -79 57 -107 16
-27 35 -60 41 -72 13 -24 37 -33 94 -33 73 0 70 -11 70 285 0 225 -2 267 -15
275 -20 13 -107 13 -115 -1 -4 -5 -6 -70 -6 -144 1 -73 -3 -136 -8 -139 -8 -5
-25 14 -58 69 -12 19 -16 29 -28 58 -3 6 -14 26 -25 42 -11 17 -26 44 -33 60
-25 54 -43 65 -108 65 -39 0 -61 -4 -64 -13z"/>
<path d="M5335 2617 c-3 -7 -4 -134 -3 -282 l3 -270 154 -3 c87 -1 159 2 164
7 15 15 13 111 -2 120 -7 5 -46 7 -87 5 -71 -4 -75 -3 -84 20 -5 13 -5 37 -1
53 7 27 10 28 72 29 96 1 103 5 96 60 -2 26 -11 50 -18 55 -8 5 -42 8 -77 7
-68 -3 -87 9 -76 47 9 30 8 29 94 26 76 -2 80 -1 89 21 8 22 6 78 -4 106 -6
18 -314 17 -320 -1z"/>
<path d="M3211 2601 c-5 -4 -11 -31 -13 -61 -3 -50 -5 -55 -28 -59 -33 -4 -39
-17 -34 -65 6 -47 11 -57 27 -55 35 4 36 0 39 -148 l3 -148 50 -3 c79 -4 80
-2 82 150 1 73 2 136 3 140 0 4 15 8 33 10 32 3 32 4 35 61 2 31 -1 57 -5 58
-66 7 -65 6 -67 63 0 24 -4 47 -7 50 -9 9 -106 14 -118 7z"/>
<path d="M940 2490 c-62 -22 -140 -98 -140 -137 0 -12 -4 -32 -9 -46 -10 -27
9 -127 30 -155 54 -70 104 -94 196 -94 57 1 81 5 108 22 52 32 91 88 105 152
11 50 11 64 -4 111 -21 68 -81 128 -150 151 -62 20 -68 20 -136 -4z m129 -141
c40 -39 43 -99 7 -142 -20 -24 -29 -28 -67 -25 -37 3 -47 8 -66 37 -27 40 -29
73 -6 111 33 56 87 64 132 19z"/>
<path d="M1500 2494 c-23 -10 -57 -14 -102 -11 -37 2 -73 0 -79 -3 -11 -8 -15
-392 -4 -411 9 -14 105 -11 110 4 3 6 6 64 8 127 1 90 6 122 19 142 30 45 95
40 117 -9 7 -15 11 -72 10 -138 0 -63 2 -118 6 -124 8 -14 102 -14 110 -1 4 6
6 82 6 170 0 158 -1 161 -27 195 -24 32 -99 76 -128 75 -6 -1 -27 -8 -46 -16z"/>
<path d="M1950 2494 c-19 -7 -43 -13 -52 -13 -31 -1 -104 -86 -117 -135 -14
-56 -14 -123 -1 -131 6 -3 10 -16 10 -29 0 -28 48 -78 101 -105 30 -16 58 -21
114 -21 40 0 76 4 79 8 10 16 14 89 6 102 -6 10 -26 13 -64 11 -51 -2 -59 0
-86 28 -35 35 -41 93 -12 127 28 33 83 49 121 36 36 -13 38 -10 45 48 5 48 -7
66 -49 74 -20 4 -42 9 -48 10 -7 2 -28 -2 -47 -10z"/>
<path d="M2320 2495 c-14 -8 -32 -14 -40 -15 -26 0 -79 -57 -101 -107 -62
-142 29 -304 176 -313 136 -9 184 8 191 67 6 49 -12 63 -71 53 -62 -10 -135
-2 -142 17 -3 8 -3 17 1 20 3 4 55 5 115 4 106 -2 109 -2 117 21 12 39 6 129
-11 148 -8 9 -15 21 -15 27 0 17 -48 56 -88 71 -55 21 -104 24 -132 7z m117
-149 c-5 -14 -117 -20 -130 -7 -6 6 4 16 29 29 36 18 40 19 71 4 19 -9 32 -21
30 -26z"/>
<path d="M2846 2495 c-22 -8 -72 -14 -111 -13 -40 0 -77 -2 -83 -6 -15 -9 -17
-522 -2 -531 6 -4 34 -8 61 -9 59 -3 82 13 73 50 -9 36 5 99 19 85 6 -6 43
-11 82 -11 64 0 77 3 112 29 68 49 85 88 86 190 0 77 -3 92 -24 121 -40 57
-73 79 -154 103 -11 3 -38 0 -59 -8z m77 -141 c37 -37 44 -84 20 -131 -19 -35
-23 -38 -70 -41 -48 -3 -52 -1 -72 31 -30 49 -28 98 8 136 37 40 78 41 114 5z"/>
<path d="M3605 2490 c-71 -26 -118 -75 -140 -144 -16 -50 -16 -64 -5 -114 14
-64 53 -120 105 -152 47 -29 165 -31 216 -3 42 22 79 54 79 67 0 5 7 17 16 27
12 13 16 40 17 102 1 70 -3 89 -21 119 -29 46 -76 82 -135 102 -58 19 -68 19
-132 -4z m108 -121 c29 -13 57 -58 57 -92 0 -13 -10 -39 -23 -58 -19 -29 -29
-34 -66 -37 -38 -3 -47 1 -67 25 -35 42 -32 102 5 142 31 33 55 38 94 20z"/>
</g>
</svg>
